# WaveFront *.obj file (generated by Autodesk ATF)

mtllib 76de54e8-94f9-4b9d-9679-90152445ccbb.mtl

g Body1

v 4.350000 -1.000000 4.500000
v 10.650000 -1.000000 4.500000
v 10.650000 -2.000000 4.500000
v 4.350000 -2.000000 4.500000
v 10.650000 5.000000 1.500000
v 4.350000 5.000000 1.500000
v 4.350000 -2.000000 1.500000
v 10.650000 -2.000000 1.500000
v 3.961771 5.000000 1.551111
v 3.600000 5.000000 1.700962
v 3.289340 5.000000 1.939340
v 3.050962 5.000000 2.250000
v 2.901111 5.000000 2.611771
v 2.850000 5.000000 3.000000
v 2.901111 5.000000 3.388228
v 3.050962 5.000000 3.750000
v 3.289340 5.000000 4.060660
v 3.600000 5.000000 4.299038
v 3.961771 5.000000 4.448889
v 4.350000 5.000000 4.500000
v 3.961771 -2.000000 4.448889
v 3.600000 -2.000000 4.299038
v 3.289340 -2.000000 4.060660
v 3.050962 -2.000000 3.750000
v 2.901111 -2.000000 3.388228
v 2.850000 -2.000000 3.000000
v 2.901111 -2.000000 2.611771
v 3.050962 -2.000000 2.250000
v 3.289340 -2.000000 1.939340
v 3.600000 -2.000000 1.700962
v 3.961771 -2.000000 1.551111
v 10.650000 5.000000 4.500000
v 11.038228 5.000000 4.448889
v 11.400000 5.000000 4.299038
v 11.710660 5.000000 4.060660
v 11.949038 5.000000 3.750000
v 12.098889 5.000000 3.388228
v 12.150000 5.000000 3.000000
v 12.098889 5.000000 2.611771
v 11.949038 5.000000 2.250000
v 11.710660 5.000000 1.939340
v 11.400000 5.000000 1.700962
v 11.038228 5.000000 1.551111
v 11.038228 -2.000000 1.551111
v 11.400000 -2.000000 1.700962
v 11.710660 -2.000000 1.939340
v 11.949038 -2.000000 2.250000
v 12.098889 -2.000000 2.611771
v 12.150000 -2.000000 3.000000
v 12.098889 -2.000000 3.388228
v 11.949038 -2.000000 3.750000
v 11.710660 -2.000000 4.060660
v 11.400000 -2.000000 4.299038
v 11.038228 -2.000000 4.448889
v 1.900000 5.000000 4.500000
v 1.900000 -1.000000 4.500000
v 13.100000 -1.000000 4.500000
v 13.100000 5.000000 4.500000
v 1.900000 5.000000 6.100000
v 1.900000 -1.000000 6.100000
v 13.100000 5.000000 6.100000
v 13.100000 -1.000000 6.100000
v -1.000000 -2.000000 -1.000000
v 15.800000 -2.000000 -1.000000
v 15.800000 -2.000000 11.300000
v 2.200000 -2.000000 11.300000
v -1.000000 -2.000000 8.500000
v 15.800000 5.000000 11.300001
v 15.800000 5.000000 -1.000000
v -1.000000 5.000000 -1.000000
v -1.000000 5.000000 8.500000
v 2.200000 5.000000 11.300001
v 15.800000 3.000000 -1.000000
v 15.800000 3.000000 11.300001
v 2.200000 3.000000 11.300001
v -1.000000 3.000000 8.500000
v -1.000000 3.000000 -1.000000
v 14.800000 3.000000 0.000000
v 0.000000 3.000000 0.000000
v 0.000000 3.000000 7.500000
v 3.200000 3.000000 10.300000
v 14.800000 3.000000 10.300000
v 15.800000 0.000000 -1.000000
v -1.000000 0.000000 -1.000000
v -1.000000 0.000000 8.500000
v 2.200000 0.000000 11.300000
v 15.800000 0.000000 11.300000
v 0.000000 0.000000 0.000000
v 14.800000 0.000000 0.000000
v 14.800000 0.000000 10.300000
v 3.200000 0.000000 10.300000
v 0.000000 0.000000 7.500000
vt -0.630000 0.600000 0.000000
vt -0.000000 0.600000 0.000000
vt -0.630000 0.700000 0.000000
vt -0.000000 0.700000 0.000000
vt -0.630000 0.000000 0.000000
vt -0.000000 0.000000 0.000000
vt -0.630000 0.700000 0.000000
vt -0.000000 0.700000 0.000000
vt 0.700000 0.000000 0.000000
vt 0.000000 0.000000 0.000000
vt 0.700000 -0.039270 0.000000
vt -0.000000 -0.039270 0.000000
vt 0.700000 -0.078540 0.000000
vt 0.000000 -0.078540 0.000000
vt 0.700000 -0.117810 0.000000
vt -0.000000 -0.117810 0.000000
vt 0.700000 -0.157080 0.000000
vt 0.000000 -0.157080 0.000000
vt 0.700000 -0.196350 0.000000
vt -0.000000 -0.196350 0.000000
vt 0.700000 -0.235619 0.000000
vt -0.000000 -0.235619 0.000000
vt 0.700000 -0.274889 0.000000
vt 0.000000 -0.274889 0.000000
vt 0.700000 -0.314159 0.000000
vt 0.000000 -0.314159 0.000000
vt 0.700000 -0.353429 0.000000
vt 0.000000 -0.353429 0.000000
vt 0.700000 -0.392699 0.000000
vt 0.000000 -0.392699 0.000000
vt 0.700000 -0.431969 0.000000
vt 0.000000 -0.431969 0.000000
vt 0.600000 -0.471239 0.000000
vt 0.000000 -0.471239 0.000000
vt 0.700000 -0.471239 0.000000
vt 0.000000 0.000000 0.000000
vt 0.000000 -0.039270 0.000000
vt 0.600000 0.000000 0.000000
vt 0.700000 -0.039270 0.000000
vt 0.700000 0.000000 0.000000
vt 0.700000 -0.078540 0.000000
vt 0.000000 -0.078540 0.000000
vt 0.700000 -0.117810 0.000000
vt 0.000000 -0.117810 0.000000
vt 0.700000 -0.157080 0.000000
vt 0.000000 -0.157080 0.000000
vt 0.700000 -0.196350 0.000000
vt 0.000000 -0.196350 0.000000
vt 0.700000 -0.235619 0.000000
vt 0.000000 -0.235619 0.000000
vt 0.700000 -0.274889 0.000000
vt 0.000000 -0.274889 0.000000
vt 0.700000 -0.314159 0.000000
vt 0.000000 -0.314159 0.000000
vt 0.700000 -0.353429 0.000000
vt 0.000000 -0.353429 0.000000
vt 0.700000 -0.392699 0.000000
vt 0.000000 -0.392699 0.000000
vt 0.700000 -0.431969 0.000000
vt 0.000000 -0.431969 0.000000
vt 0.700000 -0.471239 0.000000
vt 0.000000 -0.471239 0.000000
vt -0.245000 0.000000 0.000000
vt -0.000000 0.000000 0.000000
vt -0.245000 0.600000 0.000000
vt -0.000000 0.600000 0.000000
vt -0.875000 0.600000 0.000000
vt -1.120000 0.600000 0.000000
vt -0.875000 0.000000 0.000000
vt -1.120000 0.000000 0.000000
vt -0.160000 0.000000 0.000000
vt 0.000000 0.000000 0.000000
vt -0.160000 0.600000 0.000000
vt -0.000000 0.600000 0.000000
vt -1.120000 0.000000 0.000000
vt 0.000000 0.000000 0.000000
vt -1.120000 0.600000 0.000000
vt -0.000000 0.600000 0.000000
vt -0.160000 0.000000 0.000000
vt -0.000000 0.000000 0.000000
vt -0.160000 0.600000 0.000000
vt -0.000000 0.600000 0.000000
vt -0.080000 -0.560000 0.000000
vt 0.080000 -0.560000 0.000000
vt -0.080000 -0.315000 0.000000
vt -0.080000 0.315000 0.000000
vt 0.080000 0.560000 0.000000
vt -0.080000 0.560000 0.000000
vt 0.359889 0.363823 0.000000
vt 0.365000 0.325000 0.000000
vt 0.615000 0.840000 0.000000
vt 0.365000 -0.305000 0.000000
vt 0.615000 -0.840000 0.000000
vt 0.359889 -0.343823 0.000000
vt 0.344904 -0.380000 0.000000
vt 0.321066 -0.411066 0.000000
vt 0.290000 -0.434904 0.000000
vt 0.253823 -0.449889 0.000000
vt 0.215000 -0.455000 0.000000
vt 0.176177 -0.449889 0.000000
vt -0.335000 -0.840000 0.000000
vt 0.140000 -0.434904 0.000000
vt 0.108934 -0.411066 0.000000
vt 0.085096 -0.380000 0.000000
vt 0.070111 -0.343823 0.000000
vt 0.065000 -0.305000 0.000000
vt -0.615000 -0.520000 0.000000
vt 0.065000 0.325000 0.000000
vt -0.615000 0.840000 0.000000
vt 0.070111 0.363823 0.000000
vt 0.085096 0.400000 0.000000
vt 0.108934 0.431066 0.000000
vt 0.140000 0.454904 0.000000
vt 0.176177 0.469889 0.000000
vt 0.215000 0.475000 0.000000
vt 0.253823 0.469889 0.000000
vt 0.290000 0.454904 0.000000
vt 0.321066 0.431066 0.000000
vt 0.344904 0.400000 0.000000
vt -0.365000 -0.305000 0.000000
vt -0.365000 0.325000 0.000000
vt -0.615000 0.840000 0.000000
vt -0.359889 0.363823 0.000000
vt -0.344904 0.400000 0.000000
vt -0.321066 0.431066 0.000000
vt -0.290000 0.454904 0.000000
vt -0.253823 0.469889 0.000000
vt -0.065000 0.570000 0.000000
vt -0.215000 0.475000 0.000000
vt -0.176177 0.469889 0.000000
vt -0.140000 0.454904 0.000000
vt -0.108934 0.431066 0.000000
vt -0.085096 0.400000 0.000000
vt -0.070111 0.363823 0.000000
vt -0.065000 0.325000 0.000000
vt 0.615000 0.840000 0.000000
vt 0.095000 0.570000 0.000000
vt 0.615000 -0.520000 0.000000
vt 0.095000 -0.550000 0.000000
vt 0.335000 -0.840000 0.000000
vt -0.065000 -0.550000 0.000000
vt -0.615000 -0.840000 0.000000
vt -0.253823 -0.449889 0.000000
vt -0.290000 -0.434904 0.000000
vt -0.065000 -0.305000 0.000000
vt -0.070111 -0.343823 0.000000
vt -0.085096 -0.380000 0.000000
vt -0.108934 -0.411066 0.000000
vt -0.140000 -0.434904 0.000000
vt -0.176177 -0.449889 0.000000
vt -0.215000 -0.455000 0.000000
vt -0.321066 -0.411066 0.000000
vt -0.344904 -0.380000 0.000000
vt -0.359889 -0.343823 0.000000
vt 0.840000 0.615000 0.000000
vt 0.740000 0.515000 0.000000
vt 0.840000 -0.615000 0.000000
vt 0.740000 -0.515000 0.000000
vt -0.740000 -0.515000 0.000000
vt -0.420000 0.515000 0.000000
vt -0.520000 0.615000 0.000000
vt -0.840000 0.335000 0.000000
vt -0.740000 0.235000 0.000000
vt -0.840000 -0.615000 0.000000
vt 0.000000 0.000000 0.000000
vt 1.360000 0.000000 0.000000
vt 0.000000 0.200000 0.000000
vt 1.360000 0.200000 0.000000
vt 0.000000 0.000000 0.000000
vt 0.425206 0.000000 0.000000
vt 0.000000 0.200000 0.000000
vt 0.425206 0.200000 0.000000
vt 0.000000 0.000000 0.000000
vt 0.950000 0.000000 0.000000
vt 0.000000 0.200000 0.000000
vt 0.950000 0.200000 0.000000
vt 0.000000 0.000000 0.000000
vt 1.680000 0.000000 0.000000
vt 0.000000 0.200000 0.000000
vt 1.680000 0.200000 0.000000
vt 0.000000 0.000000 0.000000
vt 1.230000 0.000000 0.000000
vt 0.000000 0.200000 0.000000
vt 1.230000 0.200000 0.000000
vt 0.840000 -0.615000 0.000000
vt 0.740000 -0.515000 0.000000
vt -0.840000 -0.615000 0.000000
vt -0.740000 -0.515000 0.000000
vt -0.840000 0.615000 0.000000
vt -0.740000 0.515000 0.000000
vt 0.420000 0.515000 0.000000
vt 0.840000 0.335000 0.000000
vt 0.740000 0.235000 0.000000
vt 0.520000 0.615000 0.000000
vt -0.000000 0.000000 0.000000
vt 0.950000 0.000000 0.000000
vt 0.000000 0.200000 0.000000
vt 0.950000 0.200000 0.000000
vt -0.000000 0.000000 0.000000
vt 0.425206 -0.000000 0.000000
vt 0.000000 0.200000 0.000000
vt 0.425206 0.200000 0.000000
vt 0.000000 0.000000 0.000000
vt 1.360000 0.000000 0.000000
vt 0.000000 0.200000 0.000000
vt 1.360000 0.200000 0.000000
vt 0.000000 0.000000 0.000000
vt 1.230000 0.000000 0.000000
vt 0.000000 0.200000 0.000000
vt 1.230000 0.200000 0.000000
vt 0.000000 0.000000 0.000000
vt 1.680000 0.000000 0.000000
vt 0.000000 0.200000 0.000000
vt 1.680000 0.200000 0.000000
vt -0.000000 0.000000 0.000000
vt 1.480000 0.000000 0.000000
vt -0.000000 0.300000 0.000000
vt 1.480000 0.300000 0.000000
vt -0.000000 0.000000 0.000000
vt 1.030000 0.000000 0.000000
vt -0.000000 0.300000 0.000000
vt 1.030000 0.300000 0.000000
vt 0.000000 0.000000 0.000000
vt 1.160000 0.000000 0.000000
vt 0.000000 0.300000 0.000000
vt 1.160000 0.300000 0.000000
vt 0.000000 0.000000 0.000000
vt 0.425206 0.000000 0.000000
vt 0.000000 0.300000 0.000000
vt 0.425206 0.300000 0.000000
vt 0.000000 0.000000 0.000000
vt 0.750000 0.000000 0.000000
vt 0.000000 0.300000 0.000000
vt 0.750000 0.300000 0.000000
vn 0.000000 0.000000 -0.100000
vn 0.000000 0.000000 -0.100000
vn 0.000000 0.000000 -0.100000
vn 0.000000 0.000000 -0.100000
vn -0.000000 0.000000 0.100000
vn -0.000000 0.000000 0.100000
vn -0.000000 0.000000 0.100000
vn -0.000000 0.000000 0.100000
vn 0.025882 0.000000 0.096593
vn 0.025882 0.000000 0.096593
vn 0.050000 0.000000 0.086603
vn 0.050000 0.000000 0.086603
vn 0.070711 0.000000 0.070711
vn 0.070711 0.000000 0.070711
vn 0.086603 0.000000 0.050000
vn 0.086603 0.000000 0.050000
vn 0.096593 0.000000 0.025882
vn 0.096593 0.000000 0.025882
vn 0.100000 0.000000 0.000000
vn 0.100000 0.000000 0.000000
vn 0.096593 0.000000 -0.025882
vn 0.096593 0.000000 -0.025882
vn 0.086603 0.000000 -0.050000
vn 0.086603 0.000000 -0.050000
vn 0.070711 0.000000 -0.070711
vn 0.070711 0.000000 -0.070711
vn 0.050000 0.000000 -0.086603
vn 0.050000 0.000000 -0.086603
vn 0.025882 0.000000 -0.096593
vn 0.025882 0.000000 -0.096593
vn 0.000000 0.000000 -0.100000
vn 0.000000 0.000000 -0.100000
vn -0.025882 0.000000 -0.096593
vn -0.025882 0.000000 -0.096593
vn -0.050000 0.000000 -0.086603
vn -0.050000 0.000000 -0.086603
vn -0.070711 0.000000 -0.070711
vn -0.070711 0.000000 -0.070711
vn -0.086603 0.000000 -0.050000
vn -0.086603 0.000000 -0.050000
vn -0.096593 0.000000 -0.025882
vn -0.096593 0.000000 -0.025882
vn -0.100000 0.000000 -0.000000
vn -0.100000 0.000000 -0.000000
vn -0.096593 0.000000 0.025882
vn -0.096593 0.000000 0.025882
vn -0.086603 0.000000 0.050000
vn -0.086603 0.000000 0.050000
vn -0.070711 0.000000 0.070711
vn -0.070711 0.000000 0.070711
vn -0.050000 0.000000 0.086603
vn -0.050000 0.000000 0.086603
vn -0.025882 0.000000 0.096593
vn -0.025882 0.000000 0.096593
vn 0.000000 0.000000 0.100000
vn 0.000000 0.000000 0.100000
vn 0.000000 0.000000 0.100000
vn 0.000000 0.000000 0.100000
vn 0.000000 0.000000 0.100000
vn 0.000000 0.000000 0.100000
vn 0.000000 0.000000 0.100000
vn 0.000000 0.000000 0.100000
vn 0.100000 0.000000 0.000000
vn 0.100000 0.000000 0.000000
vn 0.100000 0.000000 0.000000
vn 0.100000 0.000000 0.000000
vn 0.000000 0.000000 -0.100000
vn 0.000000 0.000000 -0.100000
vn 0.000000 0.000000 -0.100000
vn 0.000000 0.000000 -0.100000
vn -0.100000 0.000000 0.000000
vn -0.100000 0.000000 0.000000
vn -0.100000 0.000000 0.000000
vn -0.100000 0.000000 0.000000
vn -0.000000 0.100000 -0.000000
vn -0.000000 0.100000 -0.000000
vn -0.000000 0.100000 -0.000000
vn -0.000000 0.100000 -0.000000
vn -0.000000 0.100000 -0.000000
vn -0.000000 0.100000 -0.000000
vn 0.000000 -0.100000 0.000000
vn 0.000000 -0.100000 0.000000
vn 0.000000 -0.100000 0.000000
vn 0.000000 -0.100000 0.000000
vn 0.000000 -0.100000 0.000000
vn 0.000000 -0.100000 0.000000
vn 0.000000 -0.100000 0.000000
vn 0.000000 -0.100000 0.000000
vn 0.000000 -0.100000 0.000000
vn 0.000000 -0.100000 0.000000
vn 0.000000 -0.100000 0.000000
vn 0.000000 -0.100000 0.000000
vn 0.000000 -0.100000 0.000000
vn 0.000000 -0.100000 0.000000
vn 0.000000 -0.100000 0.000000
vn 0.000000 -0.100000 0.000000
vn 0.000000 -0.100000 0.000000
vn 0.000000 -0.100000 0.000000
vn 0.000000 -0.100000 0.000000
vn 0.000000 -0.100000 0.000000
vn 0.000000 -0.100000 0.000000
vn 0.000000 -0.100000 0.000000
vn 0.000000 -0.100000 0.000000
vn 0.000000 -0.100000 0.000000
vn 0.000000 -0.100000 0.000000
vn 0.000000 -0.100000 0.000000
vn 0.000000 -0.100000 0.000000
vn 0.000000 -0.100000 0.000000
vn 0.000000 -0.100000 0.000000
vn 0.000000 -0.100000 0.000000
vn 0.000000 -0.100000 0.000000
vn 0.000000 0.100000 0.000000
vn 0.000000 0.100000 0.000000
vn 0.000000 0.100000 0.000000
vn 0.000000 0.100000 0.000000
vn 0.000000 0.100000 0.000000
vn 0.000000 0.100000 0.000000
vn 0.000000 0.100000 0.000000
vn 0.000000 0.100000 0.000000
vn 0.000000 0.100000 0.000000
vn 0.000000 0.100000 0.000000
vn 0.000000 0.100000 0.000000
vn 0.000000 0.100000 0.000000
vn 0.000000 0.100000 0.000000
vn 0.000000 0.100000 0.000000
vn 0.000000 0.100000 0.000000
vn 0.000000 0.100000 0.000000
vn 0.000000 0.100000 0.000000
vn 0.000000 0.100000 0.000000
vn 0.000000 0.100000 0.000000
vn 0.000000 0.100000 0.000000
vn 0.000000 0.100000 0.000000
vn 0.000000 0.100000 0.000000
vn 0.000000 0.100000 0.000000
vn 0.000000 0.100000 0.000000
vn 0.000000 0.100000 0.000000
vn 0.000000 0.100000 0.000000
vn 0.000000 0.100000 0.000000
vn 0.000000 0.100000 0.000000
vn 0.000000 0.100000 0.000000
vn 0.000000 0.100000 0.000000
vn 0.000000 0.100000 0.000000
vn 0.000000 0.100000 0.000000
vn 0.000000 0.100000 0.000000
vn 0.000000 0.100000 0.000000
vn 0.000000 0.100000 0.000000
vn 0.000000 -0.100000 0.000000
vn 0.000000 -0.100000 0.000000
vn 0.000000 -0.100000 0.000000
vn 0.000000 -0.100000 0.000000
vn 0.000000 -0.100000 0.000000
vn 0.000000 -0.100000 0.000000
vn 0.000000 -0.100000 0.000000
vn 0.000000 -0.100000 0.000000
vn 0.000000 -0.100000 0.000000
vn 0.000000 -0.100000 0.000000
vn 0.000000 0.000000 0.100000
vn 0.000000 0.000000 0.100000
vn 0.000000 0.000000 0.100000
vn 0.000000 0.000000 0.100000
vn -0.065850 0.000000 0.075258
vn -0.065850 0.000000 0.075258
vn -0.065850 0.000000 0.075258
vn -0.065850 0.000000 0.075258
vn -0.100000 0.000000 0.000000
vn -0.100000 0.000000 0.000000
vn -0.100000 0.000000 0.000000
vn -0.100000 0.000000 0.000000
vn 0.000000 0.000000 -0.100000
vn 0.000000 0.000000 -0.100000
vn 0.000000 0.000000 -0.100000
vn 0.000000 0.000000 -0.100000
vn 0.100000 -0.000000 0.000000
vn 0.100000 -0.000000 0.000000
vn 0.100000 -0.000000 0.000000
vn 0.100000 -0.000000 0.000000
vn -0.000000 0.100000 -0.000000
vn -0.000000 0.100000 -0.000000
vn -0.000000 0.100000 -0.000000
vn -0.000000 0.100000 -0.000000
vn -0.000000 0.100000 -0.000000
vn -0.000000 0.100000 -0.000000
vn -0.000000 0.100000 -0.000000
vn -0.000000 0.100000 -0.000000
vn -0.000000 0.100000 -0.000000
vn -0.000000 0.100000 -0.000000
vn -0.100000 0.000000 0.000000
vn -0.100000 0.000000 0.000000
vn -0.100000 0.000000 0.000000
vn -0.100000 0.000000 0.000000
vn -0.065850 0.000000 0.075258
vn -0.065850 0.000000 0.075258
vn -0.065850 0.000000 0.075258
vn -0.065850 0.000000 0.075258
vn 0.000000 0.000000 0.100000
vn 0.000000 0.000000 0.100000
vn 0.000000 0.000000 0.100000
vn 0.000000 0.000000 0.100000
vn 0.100000 0.000000 0.000000
vn 0.100000 0.000000 0.000000
vn 0.100000 0.000000 0.000000
vn 0.100000 0.000000 0.000000
vn 0.000000 0.000000 -0.100000
vn 0.000000 0.000000 -0.100000
vn 0.000000 0.000000 -0.100000
vn 0.000000 0.000000 -0.100000
vn 0.000000 0.000000 -0.100000
vn 0.000000 0.000000 -0.100000
vn 0.000000 0.000000 -0.100000
vn 0.000000 0.000000 -0.100000
vn 0.100000 0.000000 0.000000
vn 0.100000 0.000000 0.000000
vn 0.100000 0.000000 0.000000
vn 0.100000 0.000000 0.000000
vn 0.000000 -0.000000 0.100000
vn 0.000000 -0.000000 0.100000
vn 0.000000 -0.000000 0.100000
vn 0.000000 -0.000000 0.100000
vn -0.065850 0.000000 0.075258
vn -0.065850 0.000000 0.075258
vn -0.065850 0.000000 0.075258
vn -0.065850 0.000000 0.075258
vn -0.100000 0.000000 0.000000
vn -0.100000 0.000000 0.000000
vn -0.100000 0.000000 0.000000
vn -0.100000 0.000000 0.000000
usemtl Steel_-_Satin
f 1/1/1 2/2/2 4/3/3
f 4/3/3 2/2/2 3/4/4
f 5/5/5 6/6/6 8/7/7
f 8/7/7 6/6/6 7/8/8
f 7/9/8 6/10/6 31/11/9
f 31/11/9 6/10/6 9/12/10
f 31/11/9 9/12/10 30/13/11
f 30/13/11 9/12/10 10/14/12
f 30/13/11 10/14/12 29/15/13
f 29/15/13 10/14/12 11/16/14
f 29/15/13 11/16/14 28/17/15
f 28/17/15 11/16/14 12/18/16
f 28/17/15 12/18/16 27/19/17
f 27/19/17 12/18/16 13/20/18
f 27/19/17 13/20/18 26/21/19
f 26/21/19 13/20/18 14/22/20
f 26/21/19 14/22/20 25/23/21
f 25/23/21 14/22/20 15/24/22
f 25/23/21 15/24/22 24/25/23
f 24/25/23 15/24/22 16/26/24
f 24/25/23 16/26/24 23/27/25
f 23/27/25 16/26/24 17/28/26
f 23/27/25 17/28/26 22/29/27
f 22/29/27 17/28/26 18/30/28
f 22/29/27 18/30/28 21/31/29
f 21/31/29 18/30/28 19/32/30
f 21/31/29 19/32/30 1/33/1
f 1/33/1 19/32/30 20/34/31
f 1/33/1 4/35/3 21/31/29
f 32/36/32 33/37/33 2/38/2
f 2/38/2 33/37/33 54/39/34
f 2/38/2 54/39/34 3/40/4
f 54/39/34 33/37/33 53/41/35
f 53/41/35 33/37/33 34/42/36
f 53/41/35 34/42/36 52/43/37
f 52/43/37 34/42/36 35/44/38
f 52/43/37 35/44/38 51/45/39
f 51/45/39 35/44/38 36/46/40
f 51/45/39 36/46/40 50/47/41
f 50/47/41 36/46/40 37/48/42
f 50/47/41 37/48/42 49/49/43
f 49/49/43 37/48/42 38/50/44
f 49/49/43 38/50/44 48/51/45
f 48/51/45 38/50/44 39/52/46
f 48/51/45 39/52/46 47/53/47
f 47/53/47 39/52/46 40/54/48
f 47/53/47 40/54/48 46/55/49
f 46/55/49 40/54/48 41/56/50
f 46/55/49 41/56/50 45/57/51
f 45/57/51 41/56/50 42/58/52
f 45/57/51 42/58/52 44/59/53
f 44/59/53 42/58/52 43/60/54
f 44/59/53 43/60/54 8/61/7
f 8/61/7 43/60/54 5/62/5
f 20/63/55 55/64/56 1/65/57
f 1/65/57 55/64/56 56/66/58
f 2/67/59 57/68/60 32/69/61
f 32/69/61 57/68/60 58/70/62
f 55/71/63 59/72/64 56/73/65
f 56/73/65 59/72/64 60/74/66
f 59/75/67 61/76/68 60/77/69
f 60/77/69 61/76/68 62/78/70
f 61/79/71 58/80/72 62/81/73
f 62/81/73 58/80/72 57/82/74
f 56/83/75 60/84/76 1/85/77
f 1/85/77 60/84/76 2/86/78
f 2/86/78 60/84/76 62/87/79
f 2/86/78 62/87/79 57/88/80
f 44/89/81 8/90/82 64/91/83
f 64/91/83 8/90/82 7/92/84
f 64/91/83 7/92/84 63/93/85
f 63/93/85 7/92/84 31/94/86
f 63/93/85 31/94/86 30/95/87
f 30/95/87 29/96/88 63/93/85
f 63/93/85 29/96/88 28/97/89
f 63/93/85 28/97/89 27/98/90
f 27/98/90 26/99/91 63/93/85
f 63/93/85 26/99/91 25/100/92
f 63/93/85 25/100/92 67/101/93
f 67/101/93 25/100/92 24/102/94
f 67/101/93 24/102/94 23/103/95
f 23/103/95 22/104/96 67/101/93
f 67/101/93 22/104/96 21/105/97
f 67/101/93 21/105/97 4/106/98
f 67/101/93 4/106/98 66/107/99
f 66/107/99 4/106/98 3/108/100
f 66/107/99 3/108/100 65/109/101
f 65/109/101 3/108/100 54/110/102
f 65/109/101 54/110/102 53/111/103
f 53/111/103 52/112/104 65/109/101
f 65/109/101 52/112/104 51/113/105
f 65/109/101 51/113/105 50/114/106
f 65/109/101 50/114/106 64/91/83
f 64/91/83 50/114/106 49/115/107
f 64/91/83 49/115/107 48/116/108
f 48/116/108 47/117/109 64/91/83
f 64/91/83 47/117/109 46/118/110
f 64/91/83 46/118/110 45/119/111
f 45/119/111 44/89/81 64/91/83
f 6/120/112 5/121/113 69/122/114
f 69/122/114 5/121/113 43/123/115
f 69/122/114 43/123/115 42/124/116
f 42/124/116 41/125/117 69/122/114
f 69/122/114 41/125/117 40/126/118
f 69/122/114 40/126/118 39/127/119
f 69/122/114 39/127/119 58/128/120
f 58/128/120 39/127/119 38/129/121
f 58/128/120 38/129/121 37/130/122
f 37/130/122 36/131/123 58/128/120
f 58/128/120 36/131/123 35/132/124
f 58/128/120 35/132/124 34/133/125
f 34/133/125 33/134/126 58/128/120
f 58/128/120 33/134/126 32/135/127
f 69/122/114 58/128/120 68/136/128
f 68/136/128 58/128/120 61/137/129
f 68/136/128 61/137/129 72/138/130
f 72/138/130 61/137/129 59/139/131
f 72/138/130 59/139/131 71/140/132
f 71/140/132 59/139/131 55/141/133
f 71/140/132 55/141/133 70/142/134
f 70/142/134 55/141/133 13/143/135
f 70/142/134 13/143/135 12/144/136
f 20/145/137 19/146/138 55/141/133
f 55/141/133 19/146/138 18/147/139
f 55/141/133 18/147/139 17/148/140
f 17/148/140 16/149/141 55/141/133
f 55/141/133 16/149/141 15/150/142
f 55/141/133 15/150/142 14/151/143
f 14/151/143 13/143/135 55/141/133
f 12/144/136 11/152/144 70/142/134
f 70/142/134 11/152/144 10/153/145
f 70/142/134 10/153/145 9/154/146
f 9/154/146 6/120/112 70/142/134
f 70/142/134 6/120/112 69/122/114
f 74/155/147 82/156/148 73/157/149
f 73/157/149 82/156/148 78/158/150
f 73/157/149 78/158/150 79/159/151
f 82/156/148 74/155/147 81/160/152
f 81/160/152 74/155/147 75/161/153
f 81/160/152 75/161/153 76/162/154
f 81/160/152 76/162/154 80/163/155
f 80/163/155 76/162/154 77/164/156
f 80/163/155 77/164/156 79/159/151
f 79/159/151 77/164/156 73/157/149
f 75/165/157 74/166/158 72/167/159
f 72/167/159 74/166/158 68/168/160
f 76/169/161 75/170/162 71/171/163
f 71/171/163 75/170/162 72/172/164
f 77/173/165 76/174/166 70/175/167
f 70/175/167 76/174/166 71/176/168
f 73/177/169 77/178/170 69/179/171
f 69/179/171 77/178/170 70/180/172
f 74/181/173 73/182/174 68/183/175
f 68/183/175 73/182/174 69/184/176
f 84/185/177 88/186/178 83/187/179
f 83/187/179 88/186/178 89/188/180
f 83/187/179 89/188/180 87/189/181
f 87/189/181 89/188/180 90/190/182
f 87/189/181 90/190/182 91/191/183
f 84/185/177 85/192/184 88/186/178
f 88/186/178 85/192/184 92/193/185
f 92/193/185 85/192/184 91/191/183
f 91/191/183 85/192/184 86/194/186
f 91/191/183 86/194/186 87/189/181
f 85/195/187 84/196/188 67/197/189
f 67/197/189 84/196/188 63/198/190
f 86/199/191 85/200/192 66/201/193
f 66/201/193 85/200/192 67/202/194
f 87/203/195 86/204/196 65/205/197
f 65/205/197 86/204/196 66/206/198
f 83/207/199 87/208/200 64/209/201
f 64/209/201 87/208/200 65/210/202
f 84/211/203 83/212/204 63/213/205
f 63/213/205 83/212/204 64/214/206
f 89/215/207 88/216/208 78/217/209
f 78/217/209 88/216/208 79/218/210
f 90/219/211 89/220/212 82/221/213
f 82/221/213 89/220/212 78/222/214
f 91/223/215 90/224/216 81/225/217
f 81/225/217 90/224/216 82/226/218
f 92/227/219 91/228/220 80/229/221
f 80/229/221 91/228/220 81/230/222
f 88/231/223 92/232/224 79/233/225
f 79/233/225 92/232/224 80/234/226
# 92 vertices
# 234 texture params
# 226 normals
# 184 facets

# 1 groups
